<?xml version="1.0" encoding="UTF-8" standalone="no"?>
<!-- Created with Inkscape (http://www.inkscape.org/)  -->

<svg
   xmlns:dc="http://purl.org/dc/elements/1.1/"
   xmlns:cc="http://creativecommons.org/ns#"
   xmlns:rdf="http://www.w3.org/1999/02/22-rdf-syntax-ns#"
   xmlns:svg="http://www.w3.org/2000/svg"
   xmlns="http://www.w3.org/2000/svg"
   xmlns:sodipodi="http://sodipodi.sourceforge.net/DTD/sodipodi-0.dtd"
   xmlns:inkscape="http://www.inkscape.org/namespaces/inkscape"
   width="500mm"
   height="285mm"
   viewBox="0 0 500 285"
   version="1.1"
   id="svg8"
   inkscape:version="0.92.0 r15299"
   sodipodi:docname="COVID19 mask lid_1_7.svg">
  <defs
     id="defs2" />
  <sodipodi:namedview
     id="base"
     pagecolor="#ffffff"
     bordercolor="#666666"
     borderopacity="1.0"
     inkscape:pageopacity="0.0"
     inkscape:pageshadow="2"
     inkscape:zoom="0.29390539"
     inkscape:cx="887.60269"
     inkscape:cy="727.59142"
     inkscape:document-units="mm"
     inkscape:current-layer="layer1"
     showgrid="false"
     inkscape:window-width="1366"
     inkscape:window-height="705"
     inkscape:window-x="-8"
     inkscape:window-y="-8"
     inkscape:window-maximized="1" />
  <metadata
     id="metadata5">
    <rdf:RDF>
      <cc:Work
         rdf:about="">
        <dc:format>image/svg+xml</dc:format>
        <dc:type
           rdf:resource="http://purl.org/dc/dcmitype/StillImage" />
        <dc:title></dc:title>
      </cc:Work>
    </rdf:RDF>
  </metadata>
  <g
     inkscape:label="Layer 1"
     inkscape:groupmode="layer"
     id="layer1"
     transform="translate(-40.132976,4.8788613)">
    <g
       id="g8668">
      <g
         style="stroke:#0000ff;stroke-opacity:1"
         id="g8476">
        <path
           inkscape:connector-curvature="0"
           id="path3960"
           style="fill:none;stroke:#0000ff;stroke-width:0.10002128;stroke-linecap:round;stroke-linejoin:round;stroke-miterlimit:4;stroke-dasharray:none;stroke-opacity:1"
           d="m 76.261552,16.344832 h -0.254054 c -0.250525,0.0035 -0.497875,0.0367 -0.74099,0.08469 l -0.04234,0.02117 h -0.06351 c -0.207477,0.06598 -0.505284,0.125616 -0.698649,0.211712 l -0.127027,0.04234 -0.04234,0.04234 -0.06351,0.02117 c -0.240998,0.07587 -0.446359,0.236765 -0.656307,0.338739 l -0.04234,0.04234 -0.06351,0.02117 c -0.205713,0.174309 -0.411074,0.287575 -0.613964,0.508108 l -0.211712,0.211712 -0.04234,0.04234 -0.127027,0.127027 -0.04234,0.06351 -0.127027,0.127027 -0.02117,0.06351 -0.08469,0.08469 -0.02117,0.06351 -0.04234,0.04234 -0.04234,0.04234 -0.02117,0.06351 c -0.125968,0.177838 -0.269579,0.428717 -0.359909,0.635135 l -0.04234,0.127027 -0.04234,0.04234 -0.02117,0.06351 c -0.08821,0.21524 -0.153843,0.474234 -0.211711,0.698649 l -0.02117,0.06351 v 0.06351 c -0.06316,0.118558 -0.106562,0.631959 -0.105856,0.783332 v 0.190541 l -0.02117,0.06351" />
        <path
           d="m 491.34352,21.341228 -0.0212,-0.06351 v -0.190541 c -0.004,-0.250525 -0.0367,-0.497875 -0.0847,-0.74099 l -0.0212,-0.04234 v -0.06351 c -0.066,-0.20783 -0.12561,-0.504932 -0.21171,-0.698649 l -0.0423,-0.127027 -0.0423,-0.04234 -0.0212,-0.06351 c -0.0759,-0.240998 -0.23677,-0.446359 -0.33875,-0.656307 l -0.0423,-0.04234 -0.0212,-0.06351 c -0.17431,-0.205713 -0.28792,-0.411074 -0.50811,-0.613964 l -0.0423,-0.04234 -0.0423,-0.04234 -0.0423,-0.04234 -0.0423,-0.04234 -0.21172,-0.211711 -0.0635,-0.04234 -0.0423,-0.04234 -0.0423,-0.04234 -0.0423,-0.04234 -0.0635,-0.02117 -0.0847,-0.08469 -0.0635,-0.02117 -0.0847,-0.08469 -0.0635,-0.02117 c -0.17783,-0.125969 -0.42871,-0.26958 -0.63513,-0.35991 l -0.0635,-0.02117 -0.0635,-0.02117 -0.0423,-0.04234 -0.0635,-0.02117 c -0.21525,-0.08821 -0.47424,-0.153843 -0.69865,-0.211711 l -0.0635,-0.02117 h -0.0635 c -0.11856,-0.06316 -0.63196,-0.106562 -0.78333,-0.105856 h -0.19054 l -0.0423,-0.02117"
           style="fill:none;stroke:#0000ff;stroke-width:0.10002128;stroke-linecap:round;stroke-linejoin:round;stroke-miterlimit:4;stroke-dasharray:none;stroke-opacity:1"
           id="path3964"
           inkscape:connector-curvature="0" />
        <path
           inkscape:connector-curvature="0"
           id="path3968"
           style="fill:none;stroke:#0000ff;stroke-width:0.10002128;stroke-linecap:round;stroke-linejoin:round;stroke-miterlimit:4;stroke-dasharray:none;stroke-opacity:1"
           d="m 486.34713,206.29258 0.0423,-0.0212 h 0.19054 c 0.25053,-0.004 0.49787,-0.0367 0.74099,-0.0847 l 0.0423,-0.0212 h 0.0635 c 0.20747,-0.066 0.50528,-0.12562 0.69865,-0.21172 l 0.0635,-0.0212 0.0635,-0.0212 0.0423,-0.0423 0.0635,-0.0212 c 0.24101,-0.0762 0.44637,-0.23676 0.65631,-0.33874 l 0.0423,-0.0423 0.0635,-0.0212 c 0.20571,-0.17431 0.41107,-0.28758 0.61397,-0.50811 l 0.0423,-0.0423 0.0423,-0.0423 0.0423,-0.0423 0.0423,-0.0423 0.0423,-0.0423 0.0423,-0.0423 0.0423,-0.0423 0.0423,-0.0423 0.0423,-0.0423 0.0423,-0.0635 0.0423,-0.0423 0.0423,-0.0423 0.0423,-0.0423 0.0212,-0.0635 0.0423,-0.0423 0.0423,-0.0423 0.0212,-0.0635 0.0847,-0.0847 0.0212,-0.0635 c 0.12562,-0.17749 0.26959,-0.42907 0.35992,-0.63514 l 0.0423,-0.12702 0.0423,-0.0423 0.0212,-0.0635 c 0.0882,-0.21524 0.15385,-0.47424 0.21172,-0.69864 l 0.0212,-0.0635 v -0.0635 c 0.0631,-0.11821 0.10657,-0.63232 0.10587,-0.78334 v -0.19054 l 0.0212,-0.0423" />
        <path
           d="m 71.265158,201.29618 v 0.23288 c 0.0035,0.25054 0.0367,0.49788 0.08469,0.741 l 0.02117,0.0423 v 0.0635 c 0.06598,0.20748 0.125615,0.50529 0.211712,0.69865 l 0.04234,0.12703 0.04234,0.0423 0.02117,0.0635 c 0.07587,0.241 0.236765,0.44637 0.338739,0.65631 l 0.04234,0.0423 0.02117,0.0635 c 0.174309,0.20572 0.287575,0.41108 0.508108,0.61397 l 0.04234,0.0423 0.127027,0.12703 0.04234,0.0423 0.169369,0.16937 0.06351,0.0423 0.08469,0.0847 0.04234,0.0423 0.06351,0.0212 0.08469,0.0847 0.06351,0.0212 0.08469,0.0847 0.06351,0.0212 c 0.177838,0.12597 0.428716,0.26959 0.635135,0.35992 l 0.06351,0.0212 0.06351,0.0212 0.04234,0.0423 0.06351,0.0212 c 0.21524,0.0882 0.474234,0.15384 0.698649,0.21171 l 0.06351,0.0212 h 0.06351 c 0.118558,0.0632 0.631959,0.10656 0.783332,0.10586 h 0.190541 l 0.06351,0.0212"
           style="fill:none;stroke:#0000ff;stroke-width:0.10002128;stroke-linecap:round;stroke-linejoin:round;stroke-miterlimit:4;stroke-dasharray:none;stroke-opacity:1"
           id="path3972"
           inkscape:connector-curvature="0" />
        <path
           inkscape:connector-curvature="0"
           id="path4008"
           style="fill:none;stroke:#0000ff;stroke-width:0.10002128;stroke-linecap:round;stroke-linejoin:round;stroke-miterlimit:4;stroke-dasharray:none;stroke-opacity:1"
           d="m 76.261561,206.29258 13.083784,0.5081 13.041445,1.31261 12.99909,1.58784 12.85091,2.51938 9.29413,2.28648 9.12479,2.92162 8.82837,3.68379 4.25541,2.15946 4.12838,2.43468 3.87432,2.81577 2.09595,1.92657 1.99008,2.11712 1.73604,2.32883 1.07973,2.58288 0.40226,2.83693 0.19054,2.45587 0.48693,2.39234 1.12207,2.03243 1.77838,1.63017 2.01127,1.3973 2.05359,1.22793 4.29776,2.05361 4.48828,1.69369 4.48829,1.60901 9.27297,2.39234 9.37883,1.92658 9.46352,1.41846 9.48468,1.16442 9.52702,0.88919 9.52703,0.74099 9.56937,0.42343 9.5482,0.52927 9.56936,0.10586" />
        <path
           d="M 71.265165,21.34123 V 201.29618"
           style="fill:none;stroke:#0000ff;stroke-width:0.10002128;stroke-linecap:round;stroke-linejoin:round;stroke-miterlimit:4;stroke-dasharray:none;stroke-opacity:1"
           id="path4012"
           inkscape:connector-curvature="0" />
        <path
           inkscape:connector-curvature="0"
           id="path4016"
           style="fill:none;stroke:#0000ff;stroke-width:0.10002128;stroke-linecap:round;stroke-linejoin:round;stroke-miterlimit:4;stroke-dasharray:none;stroke-opacity:1"
           d="M 486.34714,16.344834 H 76.261565" />
        <path
           d="M 491.34353,201.29618 V 21.341233"
           style="fill:none;stroke:#0000ff;stroke-width:0.10002128;stroke-linecap:round;stroke-linejoin:round;stroke-miterlimit:4;stroke-dasharray:none;stroke-opacity:1"
           id="path4020"
           inkscape:connector-curvature="0" />
        <path
           inkscape:connector-curvature="0"
           id="path4024"
           style="fill:none;stroke:#0000ff;stroke-width:0.10002128;stroke-linecap:round;stroke-linejoin:round;stroke-miterlimit:4;stroke-dasharray:none;stroke-opacity:1"
           d="m 281.30434,266.39753 11.47477,-0.21171 11.47479,-0.61396 11.45359,-0.65631 11.43243,-0.97387 11.3901,-1.3973 9.46351,-1.41847 9.37883,-1.92658 9.27297,-2.39234 4.48828,-1.60901 4.4883,-1.69369 4.29774,-2.05361 2.28649,-1.39729 2.24415,-1.58784 1.79954,-1.94775 0.78334,-1.9054 0.3599,-2.13829 0.16938,-2.15946 0.59279,-3.51441 1.6937,-3.11217 2.41351,-2.73108 2.60405,-2.43468 3.87433,-2.81576 4.12838,-2.43469 4.2554,-2.15946 8.82838,-3.68379 9.12477,-2.92162 9.29415,-2.28648 12.85089,-2.51937 12.99911,-1.58784 13.04143,-1.31262 13.08379,-0.5081" />
      </g>
      <g
         id="g8649">
        <path
           id="path8576"
           style="fill:none;stroke:#ff0000;stroke-width:0.10028758;stroke-miterlimit:4;stroke-dasharray:none;stroke-opacity:1"
           d="m 104.25495,36.268329 a 1.9498562,1.9498562 0 0 0 1.06449,-1.703685 1.9498562,1.9498562 0 0 0 -1.00494,-1.739476 m -20.765037,3.443161 a 1.9498562,1.9498562 0 0 1 -1.06448,-1.703685 1.9498562,1.9498562 0 0 1 1.00493,-1.739476 m 0,3.409997 h 20.824597 m 0,-3.409999 -5.142297,-6.128356 m -15.6823,6.128356 5.1423,-6.128356 m 0,0 h 10.54"
           inkscape:connector-curvature="0" />
        <path
           inkscape:connector-curvature="0"
           d="m 479.07955,36.268329 a 1.9498562,1.9498562 0 0 0 1.06449,-1.703685 1.9498562,1.9498562 0 0 0 -1.00494,-1.739476 m -20.76504,3.443161 a 1.9498562,1.9498562 0 0 1 -1.06448,-1.703685 1.9498562,1.9498562 0 0 1 1.00493,-1.739476 m 0,3.409997 h 20.8246 m 0,-3.409999 -5.1423,-6.128356 m -15.6823,6.128356 5.1423,-6.128356 m 0,0 h 10.54"
           style="fill:none;stroke:#ff0000;stroke-width:0.10028758;stroke-miterlimit:4;stroke-dasharray:none;stroke-opacity:1"
           id="path8581" />
        <path
           d="m 172.30215,26.361377 -0.2106,-0.974032 -0.52651,-0.789756 -0.81606,-0.552829 -0.94772,-0.184275 -0.9477,0.184275 -0.81609,0.552829 -0.5265,0.789756 -0.18428,0.974032 0.18428,0.947707 0.5265,0.789755 0.81609,0.55283 0.9477,0.184276 0.94772,-0.184276 0.81606,-0.55283 0.52651,-0.789755 0.2106,-0.947707"
           style="fill:none;stroke:#ff0000;stroke-width:0.12434451;stroke-linecap:round;stroke-linejoin:round;stroke-miterlimit:4;stroke-dasharray:none;stroke-opacity:1"
           id="path8633"
           inkscape:connector-curvature="0" />
        <path
           inkscape:connector-curvature="0"
           id="path8637"
           style="fill:none;stroke:#ff0000;stroke-width:0.12434451;stroke-linecap:round;stroke-linejoin:round;stroke-miterlimit:4;stroke-dasharray:none;stroke-opacity:1"
           d="m 254.30214,26.361377 -0.2106,-0.974032 -0.52651,-0.789756 -0.81606,-0.552829 -0.94772,-0.184275 -0.9477,0.184275 -0.81609,0.552829 -0.5265,0.789756 -0.18428,0.974032 0.18428,0.947707 0.5265,0.789755 0.81609,0.55283 0.9477,0.184276 0.94772,-0.184276 0.81606,-0.55283 0.52651,-0.789755 0.2106,-0.947707" />
        <path
           d="m 313.30215,26.361377 -0.2106,-0.974032 -0.52651,-0.789756 -0.81606,-0.552829 -0.94772,-0.184275 -0.9477,0.184275 -0.81609,0.552829 -0.5265,0.789756 -0.18428,0.974032 0.18428,0.947707 0.5265,0.789755 0.81609,0.55283 0.9477,0.184276 0.94772,-0.184276 0.81606,-0.55283 0.52651,-0.789755 0.2106,-0.947707"
           style="fill:none;stroke:#ff0000;stroke-width:0.12434451;stroke-linecap:round;stroke-linejoin:round;stroke-miterlimit:4;stroke-dasharray:none;stroke-opacity:1"
           id="path8639"
           inkscape:connector-curvature="0" />
        <path
           inkscape:connector-curvature="0"
           id="path8641"
           style="fill:none;stroke:#ff0000;stroke-width:0.12434451;stroke-linecap:round;stroke-linejoin:round;stroke-miterlimit:4;stroke-dasharray:none;stroke-opacity:1"
           d="m 395.30214,26.361377 -0.2106,-0.974032 -0.52651,-0.789756 -0.81606,-0.552829 -0.94772,-0.184275 -0.9477,0.184275 -0.81609,0.552829 -0.5265,0.789756 -0.18428,0.974032 0.18428,0.947707 0.5265,0.789755 0.81609,0.55283 0.9477,0.184276 0.94772,-0.184276 0.81606,-0.55283 0.52651,-0.789755 0.2106,-0.947707" />
      </g>
    </g>
  </g>
</svg>
